PathFileType	4	(X/Y/Z)	E:\Qualisys_Data\Carbon_Farble_Plate\Data\Amateur_Runner\S1\T2\S1T2V13_c3d.trc
DataRate	CameraRate	NumFrames	NumMarkers	Units	OrigDataRate	OrigDataStartFrame	OrigNumFrames
200.000000	200.000000	4	39	mm	200.000000	0	307
Frame#	Time	LSHO			RSHO			LICST			RICST			LASIS			LHEEL			RASIS			LTROC			RTROC			SACR			LTH1			LSK4			LTH2			LTH3			RHM5			LSK2			LTH4			RTH1			LTOE			RTH2			RTH3			RTH4			LLEP			RLEP			LSK1			LSK3			RSK1			LHM5			RSK2			LFT1			RSK3			RSK4			LLME			RLME			RTOE			RHEEL			RFT1			RFT2			LFT2			
		X1	Y1	Z1	X2	Y2	Z2	X3	Y3	Z3	X4	Y4	Z4	X5	Y5	Z5	X6	Y6	Z6	X7	Y7	Z7	X8	Y8	Z8	X9	Y9	Z9	X10	Y10	Z10	X11	Y11	Z11	X12	Y12	Z12	X13	Y13	Z13	X14	Y14	Z14	X15	Y15	Z15	X16	Y16	Z16	X17	Y17	Z17	X18	Y18	Z18	X19	Y19	Z19	X20	Y20	Z20	X21	Y21	Z21	X22	Y22	Z22	X23	Y23	Z23	X24	Y24	Z24	X25	Y25	Z25	X26	Y26	Z26	X27	Y27	Z27	X28	Y28	Z28	X29	Y29	Z29	X30	Y30	Z30	X31	Y31	Z31	X32	Y32	Z32	X33	Y33	Z33	X34	Y34	Z34	X35	Y35	Z35	X36	Y36	Z36	X37	Y37	Z37	X38	Y38	Z38	X39	Y39	Z39	

1	0	-2167.082275390625	1554.008056640625	-550.7184448242188	-2241.62744140625	1542.7880859375	-237.3710174560547	-2210.45166015625	1071.205322265625	-534.7462768554688	-2224.6103515625	1095.725341796875	-239.9414978027344	-2172.07666015625	1026.908447265625	-507.6350708007812	-2755.917724609375	317.5699768066406	-455.1406860351562	-2187.6435546875	1046.8837890625	-245.7124481201172	-2301.810302734375	968.3878784179688	-552.9840698242188	-2289.606201171875	958.8235473632812	-213.6100769042969	-2335.586669921875	1108.524780273438	-390.1058654785156	-2238.449951171875	786.1731567382812	-526.9002075195312	-2658.263427734375	403.0139770507812	-484.6911926269531	-2313.923095703125	811.263671875	-556.8627319335938	-2277.5693359375	690.384033203125	-512.9422607421875	-1910.629760742188	138.1088256835938	-224.7917785644531	-2585.695068359375	468.4149169921875	-519.40673828125	-2355.23095703125	720.9382934570312	-533.9509887695312	-2121.673828125	872.9393310546875	-231.6998596191406	-2656.820556640625	81.60064697265625	-444.7792663574219	-2192.212890625	839.1400756835938	-210.6796112060547	-2081.50244140625	778.6365966796875	-238.7256164550781	-2156.194091796875	747.7610473632812	-228.7480621337891	-2391.288330078125	568.5047607421875	-501.9843444824219	-2075.37841796875	597.7371215820312	-255.4562530517578	-2529.7861328125	404.9591064453125	-512.5834350585938	-2609.929443359375	342.6798095703125	-510.2777404785156	-2058.95068359375	405.7887573242188	-229.0316925048828	-2716.2158203125	123.4797439575195	-512.3544311523438	-2138.478271484375	396.3606567382812	-248.6885375976562	-2776.809814453125	298.0668334960938	-427.3797607421875	-2044.081176757812	307.3141479492188	-242.3602752685547	-2119.547607421875	298.8441467285156	-270.26220703125	-2712.9150390625	282.8415222167969	-504.6968078613281	-2049.050537109375	168.7182159423828	-245.2367553710938	-1853.4931640625	177.5753173828125	-294.5996398925781	-2098.610595703125	110.7552871704102	-294.6079406738281	-2076.31884765625	86.99607849121094	-324.6764831542969	-2086.781982421875	84.95372009277344	-270.9542541503906	-2783.03955078125	296.8778381347656	-481.257080078125
2	0.005	-2149.5361328125	1554.46875	-548.9286499023438	-2224.268310546875	1542.544799804688	-235.7497863769531	-2192.973876953125	1071.200805664062	-534.3692016601562	-2207.636474609375	1094.88134765625	-240.1520080566406	-2154.615966796875	1027.1259765625	-507.1617126464844	-2745.00634765625	324.1036376953125	-455.703857421875	-2169.341552734375	1046.145263671875	-245.1248931884766	-2284.01025390625	968.3270874023438	-552.7694702148438	-2272.307373046875	958.0049438476562	-213.5803680419922	-2317.95703125	1108.046508789062	-389.2936096191406	-2220.326416015625	786.3472290039062	-526.3738403320312	-2643.2451171875	407.6261291503906	-484.2755126953125	-2294.6787109375	810.7739868164062	-556.3124389648438	-2259.40625	690.4430541992188	-512.3563842773438	-1882.552490234375	141.5313568115234	-223.7119903564453	-2568.983154296875	471.5602111816406	-519.27587890625	-2336.2099609375	720.0025634765625	-533.083984375	-2105.699462890625	869.555419921875	-231.2485961914062	-2646.15478515625	87.67810821533203	-443.3279113769531	-2176.150146484375	837.0740966796875	-209.959716796875	-2066.954833984375	775.0534057617188	-238.0888671875	-2140.727294921875	745.6944580078125	-227.5622100830078	-2373.12939453125	567.728515625	-502.0999450683594	-2061.5341796875	595.4501342773438	-255.6655120849609	-2514.775634765625	407.0135192871094	-512.3226318359375	-2596.681396484375	346.6833190917969	-509.8023071289062	-2040.352172851562	404.7378845214844	-228.2203826904297	-2704.87646484375	129.0948791503906	-511.6439208984375	-2119.51416015625	393.1042175292969	-248.4786682128906	-2766.310791015625	304.9801635742188	-428.061767578125	-2022.119873046875	306.8488464355469	-240.4204711914062	-2097.620361328125	295.9914855957031	-269.8070068359375	-2701.170654296875	288.8984375	-505.1815185546875	-2022.505126953125	168.0728607177734	-243.7669830322266	-1826.931518554688	182.9445343017578	-293.4153137207031	-2070.321533203125	108.1282119750977	-292.4098205566406	-2046.819091796875	85.2262191772461	-322.9286499023438	-2056.174560546875	81.82281494140625	-268.072265625	-2771.92529296875	303.4786682128906	-482.1497497558594
3	0.01	-2132.410888671875	1555.20947265625	-547.170166015625	-2207.609130859375	1541.3173828125	-234.6039428710938	-2175.791748046875	1071.20654296875	-533.6763305664062	-2190.057861328125	1093.864868164062	-239.3621673583984	-2136.9169921875	1026.96875	-506.8175964355469	-2733.49755859375	329.462890625	-456.2926025390625	-2153.13330078125	1045.165893554688	-245.0661315917969	-2266.245361328125	968.0867309570312	-552.7994995117188	-2254.149169921875	957.3776245117188	-213.6871185302734	-2300.76904296875	1107.55908203125	-388.9470520019531	-2201.604248046875	786.0173950195312	-525.39697265625	-2628.211181640625	413.1919250488281	-484.81640625	-2276.094970703125	809.6217651367188	-555.4462890625	-2239.806396484375	689.9474487304688	-511.16357421875	-1855.93505859375	144.2627563476562	-223.3294067382812	-2552.17626953125	474.9195556640625	-519.6558837890625	-2317.627197265625	719.4613647460938	-532.476806640625	-2090.313232421875	865.7947387695312	-232.3737487792969	-2635.58642578125	94.18032836914062	-441.7199401855469	-2160.306884765625	834.118896484375	-208.4791412353516	-2051.72412109375	771.2322387695312	-237.6543426513672	-2127.212890625	741.93798828125	-226.7244873046875	-2353.83154296875	566.0723266601562	-501.7986755371094	-2047.913330078125	592.3496704101562	-256.2603149414062	-2499.19482421875	408.8035888671875	-512.3988037109375	-2582.605224609375	350.484130859375	-509.6321411132812	-2021.101440429688	404.0031433105469	-227.7616882324219	-2693.31298828125	135.3685455322266	-511.0144653320312	-2100.271484375	389.4042663574219	-248.0142059326172	-2755.7275390625	311.3781127929688	-429.23291015625	-2000.903930664062	306.0669860839844	-239.6540679931641	-2075.6982421875	293.4718627929688	-268.6383056640625	-2689.42724609375	294.8226623535156	-505.3033447265625	-1997.44580078125	166.2688140869141	-242.4921722412109	-1801.275024414062	187.7222900390625	-292.6128845214844	-2043.623901367188	106.3329925537109	-291.0090637207031	-2018.983520507812	83.96360778808594	-321.3920593261719	-2027.744018554688	79.7433090209961	-266.56591796875	-2760.454833984375	309.2613220214844	-483.1972961425781
4	0.015	-2114.331298828125	1554.714599609375	-545.7052001953125	-2190.3251953125	1540.325439453125	-233.4689178466797	-2158.40234375	1071.219360351562	-533.23583984375	-2172.7685546875	1092.799194335938	-239.0585479736328	-2120.18798828125	1027.097412109375	-506.7289123535156	-2721.20458984375	336.4759216308594	-456.3473510742188	-2135.307861328125	1044.18798828125	-244.4106750488281	-2248.517822265625	967.1889038085938	-552.3387451171875	-2237.018310546875	955.4746704101562	-213.8644256591797	-2283.728515625	1106.472900390625	-388.3320617675781	-2183.103271484375	785.7299194335938	-525.0573120117188	-2612.891845703125	418.5425109863281	-485.8150939941406	-2257.269775390625	808.6348266601562	-554.491455078125	-2220.4423828125	688.7318115234375	-510.265380859375	-1829.977783203125	147.0027465820312	-221.8431396484375	-2534.344970703125	477.7193908691406	-519.6964721679688	-2298.0791015625	717.7260131835938	-532.0108642578125	-2073.033935546875	861.7389526367188	-230.3971557617188	-2624.298095703125	100.4979476928711	-440.0935668945312	-2145.19189453125	831.506591796875	-207.1943359375	-2037.188720703125	766.4736938476562	-236.7442779541016	-2112.531982421875	738.6751708984375	-224.7996520996094	-2334.103759765625	565.0045166015625	-501.4217529296875	-2033.8056640625	589.4755859375	-256.2223510742188	-2484.105712890625	410.6191711425781	-511.3214111328125	-2568.76904296875	354.6303100585938	-509.6248779296875	-2003.574584960938	402.6358337402344	-226.6728363037109	-2681.581298828125	141.3582611083984	-510.3684997558594	-2081.6533203125	386.5530090332031	-247.0940093994141	-2743.7646484375	317.7029418945312	-430.0213623046875	-1979.4580078125	305.6753234863281	-238.4388580322266	-2054.343994140625	290.9129943847656	-267.9103393554688	-2676.52490234375	300.7545471191406	-504.9108581542969	-1975.446044921875	164.4399871826172	-243.3359069824219	-1778.331665039062	192.5493621826172	-292.4063110351562	-2017.953125	103.8451843261719	-288.8206481933594	-1992.6552734375	82.87348937988281	-320.1808471679688	-2000.732177734375	77.56724548339844	-264.6100463867188	-2748.161865234375	315.7853698730469	-483.6266479492188
